<svg width="18" height="18" viewBox="0 0 18 18" fill="none" xmlns="http://www.w3.org/2000/svg">
<path d="M14.6216 12.2792V14.6215C14.6216 15.1389 14.2021 15.5583 13.6847 15.5583H4.31579C3.79836 15.5583 3.37891 15.1389 3.37891 14.6214V3.37878C3.37891 2.86135 3.79837 2.44189 4.3158 2.44189H9.00024H12.4747C12.7651 2.44189 13.0391 2.57658 13.2165 2.80653L14.4265 4.37509C14.553 4.53904 14.6216 4.74028 14.6216 4.94735V6.81404" stroke="#1C1E21" stroke-width="1.17111"/>
<path d="M7.37646 8.05811C8.20347 8.05811 8.74463 8.57647 8.74463 9.35498C8.74453 10.146 8.18827 10.6435 7.34619 10.6411H6.77393V11.7544H5.8042V8.05811H7.37646ZM10.5278 8.05811C11.6661 8.05811 12.3763 8.74969 12.3765 9.90576C12.3765 11.0594 11.6667 11.7543 10.5386 11.7544H9.13428V8.05811H10.5278ZM15.4233 8.84424H13.8159V9.51318H15.2603V10.2993H13.8159V11.7544H12.8452V8.05811H15.4233V8.84424ZM10.104 10.9272H10.5024C11.0716 10.9272 11.396 10.6843 11.396 9.90576C11.3959 9.12497 11.0717 8.88525 10.4771 8.88525H10.104V10.9272ZM6.77393 9.88525H7.15186C7.51678 9.8827 7.73146 9.67902 7.729 9.35498C7.73156 9.03337 7.51686 8.83703 7.15186 8.83447H6.77393V9.88525Z" fill="#1C1E21"/>
</svg>
